<?xml version="1.0" encoding="utf-8"?>
<!-- Generator: Adobe Illustrator 18.1.1, SVG Export Plug-In . SVG Version: 6.00 Build 0)  -->
<svg version="1.1" id="Layer_1" xmlns="http://www.w3.org/2000/svg" xmlns:xlink="http://www.w3.org/1999/xlink" x="0px" y="0px"
	 width="300px" height="50px" viewBox="0 0 300 50" enable-background="new 0 0 300 50" xml:space="preserve">
<g>
	<path d="M26.8,4.2h5.8l-12,34.3h-5.9L2.8,4.2h5.8l7.1,21.3c0.4,1,0.8,2.3,1.2,3.9s0.7,2.8,0.8,3.6c0.2-1.2,0.5-2.6,0.9-4.1
		s0.8-2.7,1-3.5L26.8,4.2z"/>
	<path d="M37.2,38.5V4.2h5.6v34.3H37.2z"/>
	<path d="M63.6,38.5H58V9H48V4.2h25.8V9H63.6V38.5z"/>
	<path d="M109.4,21.3c0,5.6-1.4,9.9-4.2,13S98.5,39,93.4,39c-5.2,0-9.1-1.5-11.9-4.6s-4.2-7.4-4.2-13.1s1.4-10,4.2-13
		s6.8-4.5,11.9-4.5c5.1,0,9,1.5,11.8,4.6S109.4,15.7,109.4,21.3z M83.2,21.3c0,4.2,0.9,7.4,2.6,9.6s4.2,3.3,7.6,3.3
		c3.3,0,5.8-1.1,7.5-3.2s2.5-5.4,2.5-9.6c0-4.2-0.8-7.4-2.5-9.6s-4.2-3.3-7.5-3.3c-3.4,0-5.9,1.1-7.6,3.3S83.2,17.1,83.2,21.3z"/>
	<path d="M122.3,24.8v13.7h-5.6V4.2h9.7c4.4,0,7.7,0.8,9.8,2.5s3.2,4.2,3.2,7.5c0,4.3-2.2,7.3-6.7,9.1l9.7,15.2h-6.4l-8.2-13.7
		H122.3z M122.3,20.2h3.9c2.6,0,4.5-0.5,5.7-1.5s1.8-2.4,1.8-4.3c0-1.9-0.6-3.3-1.9-4.2S128.6,9,126.1,9h-3.7V20.2z"/>
	<path d="M155.6,48c-1.5,0-2.8-0.2-3.8-0.6v-4.7c1.3,0.3,2.5,0.5,3.4,0.5c3.1,0,4.6-1.9,4.6-5.8V4.2h5.6v33c0,3.5-0.8,6.2-2.5,8
		S158.8,48,155.6,48z"/>
	<path d="M204.7,21.3c0,5.6-1.4,9.9-4.2,13s-6.7,4.6-11.8,4.6c-5.2,0-9.1-1.5-11.9-4.6s-4.2-7.4-4.2-13.1s1.4-10,4.2-13
		s6.8-4.5,11.9-4.5c5.1,0,9,1.5,11.8,4.6S204.7,15.7,204.7,21.3z M178.5,21.3c0,4.2,0.9,7.4,2.6,9.6s4.2,3.3,7.6,3.3
		c3.3,0,5.8-1.1,7.5-3.2s2.5-5.4,2.5-9.6c0-4.2-0.8-7.4-2.5-9.6s-4.2-3.3-7.5-3.3c-3.4,0-5.9,1.1-7.6,3.3S178.5,17.1,178.5,21.3z"/>
	<path d="M217.6,24.8v13.7H212V4.2h9.7c4.4,0,7.7,0.8,9.8,2.5s3.2,4.2,3.2,7.5c0,4.3-2.2,7.3-6.7,9.1l9.7,15.2h-6.4l-8.2-13.7H217.6
		z M217.6,20.2h3.9c2.6,0,4.5-0.5,5.7-1.5s1.8-2.4,1.8-4.3c0-1.9-0.6-3.3-1.9-4.2S223.9,9,221.3,9h-3.7V20.2z"/>
	<path d="M256.7,19.9h12.6v17.2c-2.1,0.7-4,1.1-5.9,1.4s-3.9,0.4-6.2,0.4c-5.2,0-9.2-1.5-12-4.6s-4.2-7.4-4.2-13
		c0-5.5,1.6-9.8,4.8-12.9s7.5-4.7,13.1-4.7c3.6,0,7,0.7,10.2,2.1l-2,4.7c-2.8-1.3-5.6-1.9-8.3-1.9c-3.7,0-6.5,1.1-8.7,3.4
		s-3.2,5.4-3.2,9.4c0,4.2,1,7.4,2.9,9.6s4.7,3.3,8.3,3.3c1.8,0,3.8-0.2,5.8-0.7v-8.8h-7.1V19.9z"/>
	<path d="M296.9,38.5h-19.4V4.2h19.4V9h-13.8v9.3h12.9V23h-12.9v10.8h13.8V38.5z"/>
</g>
<g>
</g>
<g>
</g>
<g>
</g>
<g>
</g>
<g>
</g>
<g>
</g>
<g>
</g>
<g>
</g>
<g>
</g>
<g>
</g>
<g>
</g>
<g>
</g>
<g>
</g>
<g>
</g>
<g>
</g>
</svg>
