<?xml version="1.0" encoding="utf-8"?>
<!-- Generator: Adobe Illustrator 18.1.1, SVG Export Plug-In . SVG Version: 6.00 Build 0)  -->
<svg version="1.1" id="Layer_1" xmlns="http://www.w3.org/2000/svg" xmlns:xlink="http://www.w3.org/1999/xlink" x="0px" y="0px"
	 width="305px" height="50px" viewBox="0 0 305 50" enable-background="new 0 0 305 50" xml:space="preserve">
<g>
	<path d="M25.9,4.2h7.3L21.5,38.5h-7.9L2,4.2h7.3l6.4,20.4c0.4,1.2,0.7,2.6,1.1,4.2s0.6,2.7,0.7,3.3c0.2-1.4,0.8-4,1.8-7.5L25.9,4.2
		z"/>
	<path d="M37.5,38.5V4.2h7.3v34.3H37.5z"/>
	<path d="M66.6,38.5h-7.3V10.3H50v-6h25.9v6h-9.3V38.5z"/>
	<path d="M112.3,21.3c0,5.7-1.4,10-4.2,13.1S101.2,39,96,39s-9.3-1.5-12.1-4.6s-4.2-7.4-4.2-13.1s1.4-10.1,4.2-13.1S90.8,3.7,96,3.7
		s9.3,1.5,12.1,4.5S112.3,15.6,112.3,21.3z M87.3,21.3c0,3.8,0.7,6.7,2.2,8.6s3.6,2.9,6.5,2.9c5.8,0,8.7-3.9,8.7-11.6
		c0-7.7-2.9-11.6-8.6-11.6c-2.9,0-5.1,1-6.5,2.9S87.3,17.5,87.3,21.3z"/>
	<path d="M126.7,25.3v13.1h-7.3V4.2h10c4.7,0,8.1,0.8,10.3,2.5s3.4,4.3,3.4,7.7c0,2-0.6,3.8-1.7,5.4s-2.7,2.8-4.7,3.7
		c5.2,7.7,8.5,12.7,10.1,14.9h-8.1l-8.2-13.1H126.7z M126.7,19.4h2.3c2.3,0,4-0.4,5.1-1.1s1.6-2,1.6-3.6c0-1.6-0.6-2.8-1.7-3.5
		s-2.8-1-5.2-1h-2.2V19.4z"/>
	<path d="M160,48.6c-1.6,0-3.1-0.2-4.3-0.5v-6c1.3,0.3,2.4,0.5,3.4,0.5c1.6,0,2.7-0.5,3.4-1.5s1-2.5,1-4.7V4.2h7.3v32.1
		c0,4-0.9,7-2.7,9.1S163.5,48.6,160,48.6z"/>
	<path d="M210.5,21.3c0,5.7-1.4,10-4.2,13.1s-6.8,4.6-12.1,4.6s-9.3-1.5-12.1-4.6s-4.2-7.4-4.2-13.1s1.4-10.1,4.2-13.1
		s6.9-4.5,12.1-4.5s9.3,1.5,12.1,4.5S210.5,15.6,210.5,21.3z M185.5,21.3c0,3.8,0.7,6.7,2.2,8.6s3.6,2.9,6.5,2.9
		c5.8,0,8.7-3.9,8.7-11.6c0-7.7-2.9-11.6-8.6-11.6c-2.9,0-5.1,1-6.5,2.9S185.5,17.5,185.5,21.3z"/>
	<path d="M224.9,25.3v13.1h-7.3V4.2h10c4.7,0,8.1,0.8,10.3,2.5s3.4,4.3,3.4,7.7c0,2-0.6,3.8-1.7,5.4s-2.7,2.8-4.7,3.7
		c5.2,7.7,8.5,12.7,10.1,14.9H237l-8.2-13.1H224.9z M224.9,19.4h2.3c2.3,0,4-0.4,5.1-1.1s1.6-2,1.6-3.6c0-1.6-0.6-2.8-1.7-3.5
		s-2.8-1-5.2-1h-2.2V19.4z"/>
	<path d="M262.3,19.2h13.6V37c-2.2,0.7-4.3,1.2-6.2,1.5s-3.9,0.4-6,0.4c-5.2,0-9.1-1.5-11.8-4.6s-4.1-7.4-4.1-13.1
		c0-5.5,1.6-9.8,4.7-12.9s7.6-4.6,13.2-4.6c3.5,0,6.9,0.7,10.2,2.1l-2.4,5.8c-2.5-1.3-5.1-1.9-7.8-1.9c-3.1,0-5.7,1.1-7.5,3.2
		s-2.8,4.9-2.8,8.5c0,3.7,0.8,6.6,2.3,8.5s3.7,2.9,6.6,2.9c1.5,0,3.1-0.2,4.6-0.5v-7.1h-6.5V19.2z"/>
	<path d="M303.8,38.5h-19.7V4.2h19.7v6h-12.5v7.5H303v6h-11.6v8.8h12.5V38.5z"/>
</g>
<g>
</g>
<g>
</g>
<g>
</g>
<g>
</g>
<g>
</g>
<g>
</g>
<g>
</g>
<g>
</g>
<g>
</g>
<g>
</g>
<g>
</g>
<g>
</g>
<g>
</g>
<g>
</g>
<g>
</g>
</svg>
